<svg id="Layer_1" enable-background="new 0 0 58 58" height="512" viewBox="0 0 58 58" width="512" xmlns="http://www.w3.org/2000/svg"><path d="m23.03 31c4.963 0 9-4.037 9-9s-4.037-9-9-9c-4.962 0-9 4.037-9 9s4.037 9 9 9zm-6-12h3v-3c0-.553.448-1 1-1h4c.552 0 1 .447 1 1v3h3c.552 0 1 .447 1 1v4c0 .553-.448 1-1 1h-3v3c0 .553-.448 1-1 1h-4c-.552 0-1-.447-1-1v-3h-3c-.552 0-1-.447-1-1v-4c0-.553.448-1 1-1z"/><path d="m32.03 5v-4-1h-18v1 4 1h18z"/><path d="m22.03 24v3h2v-3c0-.553.448-1 1-1h3v-2h-3c-.552 0-1-.447-1-1v-3h-2v3c0 .553-.448 1-1 1h-3v2h3c.552 0 1 .447 1 1z"/><path d="m43.405 2h-9.375v2h8c.552 0 1 .447 1 1v48c0 .553-.448 1-1 1h-39c-.552 0-1-.447-1-1v-48c0-.553.448-1 1-1h9v-2h-10.375c-.896 0-1.625.729-1.625 1.625v50.75c0 .896.729 1.625 1.625 1.625h41.75c.896 0 1.625-.729 1.625-1.625v-50.75c0-.896-.729-1.625-1.625-1.625z"/><path d="m12.03 6h-8v46h37v-46h-7v1c0 .553-.448 1-1 1h-20c-.552 0-1-.447-1-1zm13 33h-12c-.552 0-1-.447-1-1s.448-1 1-1h12c.552 0 1 .447 1 1s-.448 1-1 1zm7 3c.552 0 1 .447 1 1s-.448 1-1 1h-12c-.552 0-1-.447-1-1s.448-1 1-1zm-25-5h2c.552 0 1 .447 1 1s-.448 1-1 1h-2c-.552 0-1-.447-1-1s.448-1 1-1zm0 5h9c.552 0 1 .447 1 1s-.448 1-1 1h-9c-.552 0-1-.447-1-1s.448-1 1-1zm2 7h-2c-.552 0-1-.447-1-1s.448-1 1-1h2c.552 0 1 .447 1 1s-.448 1-1 1zm16 0h-12c-.552 0-1-.447-1-1s.448-1 1-1h12c.552 0 1 .447 1 1s-.448 1-1 1zm13 0h-9c-.552 0-1-.447-1-1s.448-1 1-1h9c.552 0 1 .447 1 1s-.448 1-1 1zm0-4.996h-2c-.552 0-1-.447-1-1s.448-1 1-1h2c.552 0 1 .447 1 1s-.448 1-1 1zm0-7.004c.552 0 1 .447 1 1s-.448 1-1 1h-9c-.552 0-1-.447-1-1s.448-1 1-1zm-15-26c6.065 0 11 4.935 11 11s-4.935 11-11 11-11-4.935-11-11 4.934-11 11-11z"/><path d="m50.03 21h8v6h-8z"/><path d="m50.03 29h8v14h-8z"/><path d="m55.499 0h-2.938c-1.396 0-2.531 1.136-2.531 2.531v4.469 12h8v-12-4.469c0-1.395-1.135-2.531-2.531-2.531z"/><path d="m50.03 50c0 .217.07.427.2.6l2.8 3.733v2.667c0 .553.448 1 1 1s1-.447 1-1v-2.667l2.8-3.733c.13-.173.2-.383.2-.6v-5h-8z"/></svg>