<svg id="Capa_1" enable-background="new 0 0 511 511" height="512" viewBox="0 0 511 511" width="512" xmlns="http://www.w3.org/2000/svg"><path id="XMLID_623_" d="m436.166 74.834c-48.258-48.257-112.419-74.834-180.666-74.834s-132.408 26.577-180.666 74.834c-48.257 48.258-74.834 112.419-74.834 180.666s26.577 132.408 74.834 180.666c48.258 48.257 112.419 74.834 180.666 74.834s132.408-26.577 180.666-74.834c48.257-48.258 74.834-112.419 74.834-180.666s-26.577-132.408-74.834-180.666zm-406.166 180.666c0-56.784 21.106-108.726 55.874-148.414l41.08 41.08h-17.856v214.667h232.523l62.293 62.293c-39.688 34.768-91.63 55.874-148.414 55.874-124.341 0-225.5-101.159-225.5-225.5zm314.902-107.333h-21.069v-18h21.069zm27 30v154.667h-17.856l-46.392-46.392c5.399-9.066 8.512-19.645 8.512-30.942 0-33.452-27.215-60.667-60.667-60.667-11.296 0-21.876 3.113-30.942 8.512l-25.179-25.179h172.524zm-145.917 69.031 37.817 37.817c-2.643.744-5.425 1.151-8.302 1.151-16.91 0-30.667-13.757-30.667-30.667 0-2.876.407-5.659 1.152-8.301zm21.213-21.213c2.643-.744 5.425-1.151 8.302-1.151 16.91 0 30.667 13.757 30.667 30.667 0 2.877-.407 5.66-1.151 8.302zm-43.853-1.427c-5.399 9.066-8.512 19.645-8.512 30.942 0 33.452 27.215 60.667 60.667 60.667 11.296 0 21.876-3.113 30.942-8.512l25.179 25.179h-172.523v-154.667h17.856zm221.781 179.356-41.08-41.08h17.856v-214.667h-27v-48h-81.069v48h-124.454l-62.293-62.293c39.688-34.768 91.63-55.874 148.414-55.874 124.341 0 225.5 101.159 225.5 225.5 0 56.784-21.106 108.726-55.874 148.414z"/></svg>